<svg version="1.2" xmlns="http://www.w3.org/2000/svg" viewBox="0 0 256 256" width="256" height="256"><style></style><path  d="m83.7 59.5c0 6.6 8.9 8.9 14.2 8.9 12.1 0 21.8-9.8 21.8-21.7 0-19.2-19.9-28.4-36.5-28.4-31.8 0-47.3 26.2-47.3 55.4 0 29.6 15.4 51.3 46.5 51.3 20.9 0 43.3-12.5 43.3-35.9 0-7.6-4.2-15.4-12.7-15.4-8.6 0-12.9 16.2-29.5 16.2-11.9 0-17.1-9.1-17.1-20.2 0-9.4 4.7-24.3 16.3-24.3 2.3 0 4.6 0.7 4.6 3.6 0 3.7-3.6 6.4-3.6 10.5zm100.2 18.7v-19.3c0-1.7-0.3-10.2 2.7-10.2 3.3 0 13 8.5 19.3 8.5 4.2 0 6.8-4.1 6.8-7.8v-15c0-11.8-6.9-16.2-17.7-16.2h-52.7c-10.8 0-17.7 4.4-17.7 16.2v15c0 3.7 2.6 7.8 6.7 7.8 6.4 0 16-8.5 19.3-8.5 3.1 0 2.8 8.5 2.8 10.2v19.3c0 5.6-0.9 11.2-2.8 16.7-1.8 4.9-4.6 9.9-4.6 15.3 0 13.5 12.1 14.8 22.6 14.8 10.5 0 22.6-1.3 22.6-14.8 0-5.4-2.7-10.4-4.6-15.3-1.8-5.5-2.7-11.1-2.7-16.7z"/><path  d="m99.1 170c0 4.9-1 12.9-7.4 12.9-5.9 0-7.2-7-7.2-11.6 0-5 1.3-10.6 7.2-10.6 6 0 7.4 4.2 7.4 9.3zm6.2 22.8c0-0.7 3.1-1 3.2-1 14-1.5 25.6-10 25.6-25.2 0-26.4-26.5-36.3-48.9-36.3h-17.3c-10.7 0-21.5 1.6-21.5 14.8 0 5.5 2.8 10.1 4.6 15 2.1 5.5 2.9 11.2 2.9 17v13.1c0 5.8-0.8 11.4-2.9 17-1.8 4.9-4.4 9.6-4.4 15 0 13.4 12.1 14.8 22.6 14.8 10.4 0 22.5-1.3 22.5-14.7 0-8.6-7-19.4-7.7-32 10.4 4.9 10.4 19.1 11.1 28.8 0.9 14.6 10.4 17.9 23.2 17.9 6.8 0 19.4-1 19.4-10.4 0-13.4-19.5-25.9-29.9-31.8-0.4-0.1-2.5-1.3-2.5-2zm72.2-15.7c0-6.1 0.8-11.7 2.8-17.1 1.8-4.9 4.4-9.8 4.4-15 0-13.4-12-14.7-22.5-14.7-10.5 0-22.6 1.3-22.6 14.7 0 5.2 2.6 10.1 4.4 15 2.1 5.4 2.9 11 2.9 17.1v13.1c0 5.9-0.8 11.5-2.9 17-1.8 4.9-4.6 9.6-4.6 14.8 0 13.4 11.4 15 22.2 15 14.3 0 28.8 0.1 43.1 0.1 10.8 0 17.7-4.6 17.7-16.2v-15c0-3.9-2.6-7.9-6.8-7.9-7.2 0-12.9 8.5-26.5 8.5-7.5 0-11.6-1.9-11.6-10.3z"/></svg>